<svg width="17" height="16" viewBox="0 0 17 16" fill="none" xmlns="http://www.w3.org/2000/svg">
<path d="M2.85357 0H14.7349C15.8632 0 16.7864 0.836183 16.7864 2.05349V13.9465C16.7864 15.1638 15.8632 16 14.7349 16H2.85357C1.7249 16 0.80188 15.1638 0.80188 13.9465V2.05349C0.80188 0.836183 1.7249 0 2.85357 0ZM12.446 1.77767C12.0502 1.77767 11.7267 2.10163 11.7267 2.49803V4.22215C11.7267 4.61839 12.0502 4.94251 12.446 4.94251H14.2527C14.6486 4.94251 14.9724 4.61839 14.9724 4.22215V2.49803C14.9724 2.10163 14.6486 1.77767 14.2527 1.77767H12.446ZM14.9799 6.76634H13.5731C13.7062 7.20136 13.7782 7.66216 13.7782 8.1389C13.7782 10.8002 11.5534 12.9575 8.80941 12.9575C6.06561 12.9575 3.8411 10.8002 3.8411 8.1389C3.8411 7.66183 3.91298 7.20119 4.04625 6.76634H2.57818V13.525C2.57818 13.8747 2.86408 14.1611 3.21366 14.1611H14.3448C14.6943 14.1611 14.9802 13.8749 14.9802 13.525V6.76634H14.9799ZM8.80925 4.85167C7.0364 4.85167 5.59901 6.24558 5.59901 7.96526C5.59901 9.68493 7.0364 11.0788 8.80925 11.0788C10.5823 11.0788 12.0198 9.68493 12.0198 7.96526C12.0198 6.24558 10.5824 4.85167 8.80925 4.85167Z" fill="black" fill-opacity="0.6"/>
</svg>
