<svg width="20" height="16" viewBox="0 0 20 16" fill="none" xmlns="http://www.w3.org/2000/svg">
<path d="M19.8019 1.89415C19.0784 2.21527 18.3002 2.43246 17.484 2.52945C18.3173 2.02971 18.9568 1.23897 19.2587 0.295208C18.4789 0.758204 17.6149 1.09408 16.6961 1.27512C15.96 0.490408 14.9112 0 13.7499 0C11.5217 0 9.71449 1.80891 9.71449 4.03924C9.71449 4.35583 9.7503 4.66399 9.81952 4.9598C6.46579 4.79141 3.49214 3.18343 1.50169 0.738925C1.1544 1.33537 0.955174 2.02971 0.955174 2.76984C0.955174 4.17087 1.66811 5.40774 2.75031 6.1319C2.08914 6.11112 1.46648 5.92947 0.922672 5.62613C0.922371 5.6433 0.922371 5.66047 0.922371 5.67734C0.922371 7.63445 2.31394 9.26684 4.15964 9.63766C3.82138 9.73044 3.46416 9.77953 3.0967 9.77953C2.83608 9.77953 2.58359 9.75453 2.33742 9.70754C2.85083 11.3119 4.34081 12.4798 6.10706 12.5126C4.72572 13.5962 2.98595 14.2417 1.09481 14.2417C0.769791 14.2417 0.44778 14.2227 0.13269 14.1851C1.9176 15.3316 4.03926 16 6.31802 16C13.7405 16 17.7997 9.8452 17.7997 4.50705C17.7997 4.33203 17.7958 4.15762 17.788 3.98471C18.577 3.41538 19.2611 2.70417 19.8019 1.89415Z" fill="black" fill-opacity="0.6"/>
</svg>
