<svg
	width="20"
	height="20"
	viewBox="0 0 20 20"
	fill="none"
	xmlns="http://www.w3.org/2000/svg"
>
	<g clip-path="url(#clip0_207_313)">
		<path
			d="M15.6284 8.76496C15.6284 9.2858 13.7634 9.72163 11.2634 9.83163L11.2651 9.83246C10.8488 9.85498 10.432 9.86416 10.0151 9.85996C9.36594 9.85996 8.90677 9.8408 8.74511 9.83246C6.24011 9.72246 4.37011 9.28663 4.37011 8.76496C4.37011 8.2433 6.24011 7.80663 8.74511 7.69496V9.3983C8.90844 9.4108 9.37761 9.4383 10.0259 9.4383C10.8034 9.4383 11.1926 9.40496 11.2634 9.39913V7.69663C13.7634 7.80746 15.6284 8.24413 15.6284 8.76496ZM19.9534 9.21996L10.1034 18.6583C10.0755 18.685 10.0384 18.7 9.99969 18.7C9.96103 18.7 9.92386 18.685 9.89594 18.6583L0.0467743 9.21996C0.023661 9.19825 0.00811444 9.1697 0.00241528 9.13851C-0.00328388 9.10731 0.00116443 9.07511 0.0151076 9.04663L3.66177 1.3858C3.67382 1.36005 3.69304 1.33832 3.71714 1.32324C3.74124 1.30816 3.76918 1.30037 3.79761 1.3008H16.2043C16.2324 1.30092 16.2598 1.30907 16.2835 1.32427C16.3071 1.33948 16.3259 1.36111 16.3376 1.38663L19.9851 9.04663C19.9991 9.07511 20.0035 9.10731 19.9978 9.13851C19.9921 9.1697 19.9766 9.19825 19.9534 9.21996ZM16.2218 8.8833C16.2218 8.21163 14.0951 7.64996 11.2659 7.51913V5.9958H14.7543V3.6708H5.25677V5.9958H8.74427V7.51996C5.90927 7.64996 3.77761 8.21163 3.77761 8.88413C3.77761 9.55746 5.90927 10.1175 8.74427 10.2491V15.1341H11.2651V10.2475C14.0934 10.1166 16.2218 9.5558 16.2218 8.8833Z"
			fill="#6AB9AB"
		/>
	</g>
	<defs>
		<clipPath id="clip0_207_313">
			<rect
				width="20"
				height="20"
				fill="white"
			/>
		</clipPath>
	</defs>
</svg>