<svg width="233" height="171" viewBox="0 0 233 171" fill="none" xmlns="http://www.w3.org/2000/svg">
<g opacity="0.5">
<rect x="15" y="15" width="203.064" height="25.2171" rx="12.6085" fill="#E6E6E6"/>
<path d="M34.1186 29.2828H32.947C32.76 30.9406 31.8376 31.838 30.3294 31.838C28.4846 31.838 27.3504 30.4544 27.3504 28.1984C27.3504 26.3287 28.2354 24.5712 30.3419 24.5712C31.6631 24.5712 32.6104 25.2692 32.8722 26.4284H34.0438C33.8693 24.5338 32.1118 23.5615 30.3668 23.5615C27.6371 23.5615 26.1662 25.668 26.1662 28.2108C26.1662 31.0527 27.7492 32.8476 30.2795 32.8476C32.4733 32.8476 33.9192 31.5389 34.1186 29.2828ZM35.5481 23.761V32.6357H36.6699V25.5185L41.3316 32.6357H42.6529V23.761H41.5186V30.9655L36.8319 23.761H35.5481ZM51.6857 23.761H50.3395L47.7095 27.9865L45.0545 23.761H43.646L47.0987 29.0086V32.6357H48.2579V29.0086L51.6857 23.761ZM59.5353 23.5491H58.6628L54.9359 32.8476H55.8334L59.5353 23.5491ZM63.7649 23.761V32.6357H64.9366V28.7967H67.2675C68.8754 28.7967 69.2618 29.1831 69.3366 30.6788C69.3615 31.1899 69.3491 32.187 69.6357 32.6357H70.9819C70.5083 32.1621 70.5083 31.2646 70.4709 30.5542C70.421 29.4822 70.3711 28.6346 69.1247 28.3729C70.0346 28.1111 70.6454 27.251 70.6454 26.2165C70.6454 24.3094 69.3366 23.761 67.6663 23.761H63.7649ZM64.9366 24.7581H67.4544C68.5015 24.7581 69.4737 24.97 69.4737 26.2913C69.4737 27.7496 68.2896 27.8618 67.1428 27.8618H64.9366V24.7581ZM72.2355 23.761V29.1706C72.2355 31.6261 73.2451 32.8227 75.8128 32.8227C78.5052 32.8227 79.3901 31.5389 79.3901 29.0459V23.761H78.206V29.3576C78.206 30.9904 77.6077 31.8505 75.8128 31.8505C74.1052 31.8505 73.4196 31.0652 73.4196 29.3576V23.761L72.2355 23.761ZM81.2932 23.761V32.6357H84.9453C86.6405 32.6357 88.3108 32.1746 88.3108 30.1304C88.3108 28.9587 87.7 28.136 86.6031 27.8867C87.4009 27.6001 87.9119 26.8522 87.9119 25.9797C87.9119 24.3468 86.5533 23.761 85.0825 23.761H81.2932ZM82.44 24.7581H84.6587C85.7057 24.7581 86.7402 24.8205 86.7402 26.1542C86.7402 27.4879 85.5436 27.5627 84.5465 27.5627H82.44V24.7581ZM82.44 28.485H84.5839C85.768 28.485 87.1266 28.4726 87.1266 30.0182C87.1266 31.5763 85.9674 31.651 84.7833 31.651H82.44V28.485Z" fill="black"/>
<path d="M119.037 23.8108H118.202C117.903 25.1321 116.968 25.4437 115.659 25.4437V26.2414H117.878V32.6357H119.037V23.8108ZM125.963 23.8108H125.128C124.829 25.1321 123.894 25.4437 122.585 25.4437V26.2414H124.804V32.6357H125.963V23.8108ZM130.845 31.2522H129.462V32.6357H130.845V31.2522ZM135.349 23.7984C132.619 23.7984 132.407 26.3037 132.407 28.4103C132.407 30.5168 132.719 32.8102 135.399 32.8102C137.929 32.8102 138.303 30.5168 138.303 28.4352C138.303 26.3287 138.104 23.7984 135.349 23.7984ZM135.349 24.7457C137.206 24.7457 137.169 27.0516 137.169 28.3604C137.169 29.6318 137.181 31.8754 135.374 31.8754C133.567 31.8754 133.529 29.719 133.529 28.4103C133.529 27.0641 133.492 24.7457 135.349 24.7457ZM144.893 31.676H140.356C140.592 30.6788 141.515 30.1802 142.325 29.6941C143.621 28.9088 144.967 28.0862 144.967 26.3661C144.967 24.808 143.883 23.7984 142.213 23.7984C140.505 23.7984 139.371 24.9576 139.371 26.7026V26.9394H140.443C140.468 25.8426 140.842 24.7207 142.163 24.7207C143.173 24.7207 143.871 25.4063 143.871 26.391C143.871 27.6748 142.711 28.323 141.764 28.9213C140.231 29.8811 139.246 30.604 139.134 32.6357H144.893V31.676Z" fill="black"/>
<rect x="190.192" y="20.3086" width="22.5626" height="14.5993" rx="7.29967" fill="#CCCCCC"/>
<circle cx="197.492" cy="27.6082" r="5.97246" fill="white"/>
</g>
<g opacity="0.5">
<rect x="15" y="44.4736" width="203.064" height="25.2171" rx="12.6085" fill="#E6E6E6"/>
<path d="M26.5402 53.2346V58.6442C26.5402 61.0997 27.5498 62.2963 30.1175 62.2963C32.8099 62.2963 33.6948 61.0125 33.6948 58.5196V53.2346H32.5107V58.8312C32.5107 60.4641 31.9124 61.3241 30.1175 61.3241C28.4099 61.3241 27.7243 60.5388 27.7243 58.8312V53.2346H26.5402ZM41.8801 55.8397C41.8053 53.9326 40.509 53.0601 38.6268 53.0601C37.0313 53.0601 35.411 53.7706 35.411 55.5904C35.411 57.4601 37.0687 57.6969 38.5022 58.021C39.9605 58.3575 41.0823 58.5819 41.0823 59.7286C41.0823 60.9876 39.9107 61.349 38.8761 61.349C37.4551 61.349 36.2835 60.7881 36.2336 59.1802H35.0993C35.0993 61.3241 36.6574 62.3088 38.7764 62.3088C40.4716 62.3088 42.2291 61.5859 42.2291 59.6165C42.2291 57.7468 40.3843 57.2981 38.9384 56.9989C37.5673 56.7122 36.5328 56.5003 36.5328 55.5032C36.5328 54.5683 37.2682 54.0323 38.5396 54.0323C39.8483 54.0323 40.6087 54.5558 40.7458 55.8397H41.8801ZM43.6804 53.2346V62.1094H46.7841C49.7881 62.1094 50.9722 60.489 50.9722 57.5972C50.9722 54.5558 49.5637 53.2346 46.5722 53.2346H43.6804ZM44.8521 54.2442H46.5847C48.9903 54.2442 49.813 55.366 49.813 57.7343C49.813 60.0153 48.8781 61.0997 46.6345 61.0997H44.8521V54.2442ZM59.3162 53.0227H58.4437L54.7168 62.3213H55.6143L59.3162 53.0227ZM63.5458 53.2346V62.1094H64.7175V58.2703H67.0484C68.6563 58.2703 69.0427 58.6567 69.1175 60.1524C69.1424 60.6635 69.1299 61.6607 69.4166 62.1094H70.7628C70.2892 61.6357 70.2892 60.7383 70.2518 60.0278C70.2019 58.9558 70.152 58.1082 68.9056 57.8465C69.8155 57.5847 70.4263 56.7247 70.4263 55.6901C70.4263 53.783 69.1175 53.2346 67.4472 53.2346H63.5458ZM64.7175 54.2318H67.2353C68.2824 54.2318 69.2546 54.4437 69.2546 55.7649C69.2546 57.2233 68.0705 57.3354 66.9237 57.3354H64.7175V54.2318ZM72.0164 53.2346V58.6442C72.0164 61.0997 73.026 62.2963 75.5937 62.2963C78.286 62.2963 79.171 61.0125 79.171 58.5196V53.2346H77.9869V58.8312C77.9869 60.4641 77.3886 61.3241 75.5937 61.3241C73.8861 61.3241 73.2005 60.5388 73.2005 58.8312V53.2346H72.0164ZM81.0741 53.2346V62.1094H84.7262C86.4214 62.1094 88.0917 61.6482 88.0917 59.604C88.0917 58.4323 87.4809 57.6097 86.384 57.3604C87.1818 57.0737 87.6928 56.3258 87.6928 55.4533C87.6928 53.8204 86.3342 53.2346 84.8633 53.2346H81.0741ZM82.2209 54.2318H84.4396C85.4866 54.2318 86.5211 54.2941 86.5211 55.6278C86.5211 56.9615 85.3245 57.0363 84.3274 57.0363H82.2209V54.2318ZM82.2209 57.9587H84.3648C85.5489 57.9587 86.9075 57.9462 86.9075 59.4918C86.9075 61.0499 85.7483 61.1247 84.5642 61.1247H82.2209V57.9587Z" fill="black"/>
<path d="M119.755 53.434H114.046V54.4437H118.67C116.8 56.5128 115.404 59.2924 115.205 62.1094H116.377C116.738 58.7564 118.047 56.2884 119.755 54.3439V53.434ZM126.269 53.434H121.907L121.084 58.021L121.994 58.0833C122.393 57.5099 122.966 57.2233 123.689 57.2233C124.836 57.2233 125.621 58.0833 125.621 59.3048C125.621 60.489 124.799 61.3864 123.702 61.3864C122.717 61.3864 121.994 60.7133 121.907 59.7286H120.835C120.885 61.2742 122.006 62.2839 123.689 62.2839C125.521 62.2839 126.743 60.9751 126.743 59.1927C126.743 57.4726 125.609 56.3009 123.951 56.3009C123.228 56.3009 122.655 56.4754 122.168 56.9989L122.692 54.3689H126.269V53.434ZM129.743 60.7258H128.359V62.1094H129.743V60.7258ZM137.076 53.434H131.367V54.4437H135.992C134.122 56.5128 132.726 59.2924 132.526 62.1094H133.698C134.059 58.7564 135.368 56.2884 137.076 54.3439V53.434ZM143.591 53.434H139.228L138.405 58.021L139.315 58.0833C139.714 57.5099 140.288 57.2233 141.011 57.2233C142.157 57.2233 142.943 58.0833 142.943 59.3048C142.943 60.489 142.12 61.3864 141.023 61.3864C140.038 61.3864 139.315 60.7133 139.228 59.7286H138.156C138.206 61.2742 139.328 62.2839 141.011 62.2839C142.843 62.2839 144.064 60.9751 144.064 59.1927C144.064 57.4726 142.93 56.3009 141.272 56.3009C140.549 56.3009 139.976 56.4754 139.49 56.9989L140.013 54.3689H143.591V53.434Z" fill="black"/>
<rect x="190.192" y="49.7822" width="22.5626" height="14.5993" rx="7.29967" fill="#CCCCCC"/>
<circle cx="197.492" cy="57.0818" r="5.97246" fill="white"/>
</g>
<g opacity="0.5">
<rect x="15" y="103.423" width="203.064" height="25.2171" rx="12.6085" fill="#E6E6E6"/>
<path d="M26.6025 112.184V121.059H30.2546C31.9498 121.059 33.6201 120.597 33.6201 118.553C33.6201 117.382 33.0093 116.559 31.9124 116.31C32.7101 116.023 33.2212 115.275 33.2212 114.403C33.2212 112.77 31.8625 112.184 30.3917 112.184H26.6025ZM27.7492 113.181H29.9679C31.015 113.181 32.0495 113.243 32.0495 114.577C32.0495 115.911 30.8529 115.986 29.8558 115.986H27.7492V113.181ZM27.7492 116.908H29.8931C31.0773 116.908 32.4359 116.895 32.4359 118.441C32.4359 119.999 31.2767 120.074 30.0926 120.074H27.7492V116.908ZM41.2929 112.184H34.1631V113.206H37.1422V121.059H38.3138V113.206H41.2929V112.184ZM49.8089 117.706H48.6372C48.4503 119.363 47.5279 120.261 46.0197 120.261C44.1749 120.261 43.0406 118.877 43.0406 116.621C43.0406 114.752 43.9256 112.994 46.0321 112.994C47.3534 112.994 48.3007 113.692 48.5624 114.851H49.7341C49.5596 112.957 47.8021 111.984 46.0571 111.984C43.3273 111.984 41.8565 114.091 41.8565 116.634C41.8565 119.476 43.4395 121.27 45.9698 121.27C48.1636 121.27 49.6095 119.962 49.8089 117.706ZM58.1477 111.972H57.2752L53.5483 121.27H54.4457L58.1477 111.972ZM62.3149 112.184V117.593C62.3149 120.049 63.3246 121.246 65.8923 121.246C68.5846 121.246 69.4696 119.962 69.4696 117.469V112.184H68.2855V117.78C68.2855 119.413 67.6872 120.273 65.8923 120.273C64.1846 120.273 63.4991 119.488 63.4991 117.78V112.184H62.3149ZM77.6548 114.789C77.58 112.882 76.2837 112.009 74.4016 112.009C72.8061 112.009 71.1857 112.72 71.1857 114.54C71.1857 116.409 72.8435 116.646 74.2769 116.97C75.7353 117.307 76.8571 117.531 76.8571 118.678C76.8571 119.937 75.6854 120.298 74.6509 120.298C73.2299 120.298 72.0582 119.737 72.0084 118.129H70.8741C70.8741 120.273 72.4322 121.258 74.5512 121.258C76.2463 121.258 78.0038 120.535 78.0038 118.566C78.0038 116.696 76.1591 116.247 74.7132 115.948C73.3421 115.661 72.3075 115.45 72.3075 114.452C72.3075 113.518 73.0429 112.982 74.3143 112.982C75.6231 112.982 76.3835 113.505 76.5206 114.789H77.6548ZM79.4552 112.184V121.059H82.5589C85.5628 121.059 86.747 119.438 86.747 116.546C86.747 113.505 85.3385 112.184 82.347 112.184H79.4552ZM80.6269 113.193H82.3594C84.7651 113.193 85.5878 114.315 85.5878 116.684C85.5878 118.965 84.6529 120.049 82.4093 120.049H80.6269V113.193Z" fill="black"/>
<path d="M120.604 120.099H116.067C116.304 119.102 117.226 118.603 118.036 118.117C119.333 117.332 120.679 116.509 120.679 114.789C120.679 113.231 119.595 112.221 117.924 112.221C116.217 112.221 115.082 113.38 115.082 115.125V115.362H116.154C116.179 114.265 116.553 113.144 117.874 113.144C118.884 113.144 119.582 113.829 119.582 114.814C119.582 116.098 118.423 116.746 117.476 117.344C115.942 118.304 114.958 119.027 114.846 121.059H120.604V120.099ZM127.331 112.383H122.968L122.146 116.97L123.056 117.033C123.454 116.459 124.028 116.172 124.751 116.172C125.897 116.172 126.683 117.033 126.683 118.254C126.683 119.438 125.86 120.336 124.763 120.336C123.778 120.336 123.056 119.663 122.968 118.678H121.896C121.946 120.223 123.068 121.233 124.751 121.233C126.583 121.233 127.805 119.924 127.805 118.142C127.805 116.422 126.67 115.25 125.012 115.25C124.29 115.25 123.716 115.425 123.23 115.948L123.754 113.318H127.331V112.383ZM132.848 112.234H132.013C131.714 113.555 130.779 113.867 129.471 113.867V114.664H131.689V121.059H132.848V112.234ZM135.886 115.088H136.92C136.958 113.842 137.581 113.144 138.64 113.144C139.563 113.144 140.173 113.717 140.173 114.589C140.173 115.487 139.488 116.048 138.391 116.048C138.266 116.048 138.204 116.048 138.03 116.035V116.933C138.291 116.895 138.391 116.883 138.603 116.883C139.8 116.883 140.56 117.544 140.56 118.578C140.56 119.6 139.775 120.298 138.653 120.298C137.481 120.298 136.783 119.588 136.733 118.329H135.686V118.491C135.686 120.174 136.858 121.233 138.64 121.233C140.448 121.233 141.707 120.149 141.694 118.503C141.694 117.431 141.071 116.609 140.074 116.372C140.834 116.048 141.283 115.362 141.283 114.527C141.283 113.144 140.248 112.221 138.69 112.221C136.945 112.221 135.935 113.256 135.886 115.088ZM146.701 112.234H145.866C145.566 113.555 144.632 113.867 143.323 113.867V114.664H145.541V121.059H146.701V112.234ZM151.583 119.675H150.199V121.059H151.583V119.675ZM158.916 112.383H153.207V113.393H157.831C155.962 115.462 154.566 118.242 154.366 121.059H155.538C155.899 117.706 157.208 115.238 158.916 113.293V112.383ZM163.012 112.221C160.283 112.221 160.071 114.727 160.071 116.833C160.071 118.94 160.382 121.233 163.062 121.233C165.593 121.233 165.967 118.94 165.967 116.858C165.967 114.752 165.767 112.221 163.012 112.221ZM163.012 113.169C164.87 113.169 164.832 115.474 164.832 116.783C164.832 118.055 164.845 120.298 163.037 120.298C161.23 120.298 161.193 118.142 161.193 116.833C161.193 115.487 161.155 113.169 163.012 113.169Z" fill="black"/>
<rect x="190.192" y="108.731" width="22.5626" height="14.5993" rx="7.29967" fill="#CCCCCC"/>
<circle cx="197.492" cy="116.031" r="5.97246" fill="white"/>
</g>
<g opacity="0.5">
<rect x="15" y="132.896" width="203.064" height="25.2171" rx="12.6085" fill="#E6E6E6"/>
<path d="M32.7475 141.657H26.6025V150.532H32.8099V149.51H27.7742V146.444H32.4235V145.459H27.7742V142.68H32.7475V141.657ZM34.1601 141.657V147.067C34.1601 149.523 35.1697 150.719 37.7374 150.719C40.4298 150.719 41.3148 149.435 41.3148 146.942V141.657H40.1306V147.254C40.1306 148.887 39.5323 149.747 37.7374 149.747C36.0298 149.747 35.3443 148.962 35.3443 147.254V141.657H34.1601ZM43.2179 141.657V150.532H44.3895V146.693H46.7204C48.3283 146.693 48.7147 147.08 48.7895 148.575C48.8145 149.086 48.802 150.084 49.0887 150.532H50.4348C49.9612 150.059 49.9612 149.161 49.9238 148.451C49.8739 147.379 49.8241 146.531 48.5776 146.269C49.4875 146.008 50.0983 145.148 50.0983 144.113C50.0983 142.206 48.7895 141.657 47.1193 141.657H43.2179ZM44.3895 142.655H46.9074C47.9544 142.655 48.9266 142.867 48.9266 144.188C48.9266 145.646 47.7425 145.758 46.5958 145.758H44.3895V142.655ZM58.6102 141.446H57.7377L54.0108 150.744H54.9083L58.6102 141.446ZM62.8398 141.657V150.532H64.0115V146.693H66.3424C67.9503 146.693 68.3367 147.08 68.4115 148.575C68.4364 149.086 68.4239 150.084 68.7106 150.532H70.0568C69.5831 150.059 69.5831 149.161 69.5458 148.451C69.4959 147.379 69.446 146.531 68.1996 146.269C69.1095 146.008 69.7203 145.148 69.7203 144.113C69.7203 142.206 68.4115 141.657 66.7412 141.657H62.8398ZM64.0115 142.655H66.5293C67.5764 142.655 68.5486 142.867 68.5486 144.188C68.5486 145.646 67.3645 145.758 66.2177 145.758H64.0115V142.655ZM71.3104 141.657V147.067C71.3104 149.523 72.32 150.719 74.8877 150.719C77.58 150.719 78.465 149.435 78.465 146.942V141.657H77.2809V147.254C77.2809 148.887 76.6826 149.747 74.8877 149.747C73.1801 149.747 72.4945 148.962 72.4945 147.254V141.657H71.3104ZM80.3681 141.657V150.532H84.0202C85.7154 150.532 87.3857 150.071 87.3857 148.027C87.3857 146.855 86.7749 146.033 85.678 145.783C86.4758 145.497 86.9868 144.749 86.9868 143.876C86.9868 142.243 85.6282 141.657 84.1573 141.657H80.3681ZM81.5149 142.655H83.7335C84.7806 142.655 85.8151 142.717 85.8151 144.051C85.8151 145.384 84.6185 145.459 83.6214 145.459H81.5149V142.655ZM81.5149 146.382H83.6588C84.8429 146.382 86.2015 146.369 86.2015 147.915C86.2015 149.473 85.0423 149.548 83.8582 149.548H81.5149V146.382Z" fill="black"/>
<path d="M117.436 145.808C116.439 146.17 115.878 146.967 115.878 148.039C115.878 149.647 117.05 150.707 118.807 150.707C120.64 150.707 121.799 149.647 121.799 147.965C121.799 146.905 121.275 146.17 120.241 145.808C121.038 145.434 121.45 144.774 121.45 143.901C121.45 142.605 120.365 141.695 118.845 141.695C117.299 141.695 116.215 142.617 116.215 143.951C116.215 144.811 116.663 145.484 117.436 145.808ZM118.845 142.642C119.767 142.642 120.365 143.178 120.365 144.026C120.365 144.861 119.767 145.409 118.845 145.409C117.922 145.409 117.299 144.861 117.299 144.026C117.299 143.191 117.922 142.642 118.845 142.642ZM118.807 146.269C119.929 146.269 120.689 146.98 120.689 148.027C120.689 149.074 119.929 149.809 118.832 149.809C117.76 149.809 116.987 149.061 116.987 148.014C116.987 147.005 117.748 146.269 118.807 146.269ZM126.768 141.707H125.933C125.634 143.029 124.699 143.34 123.39 143.34V144.138H125.609V150.532H126.768V141.707ZM131.65 149.149H130.266V150.532H131.65V149.149ZM139.12 147.503H137.924V141.695H137.063L133.05 147.404V148.401H136.926V150.532H137.924V148.401H139.12V147.503ZM136.926 147.503H133.985L136.926 143.253V147.503ZM143.08 141.695C140.35 141.695 140.138 144.2 140.138 146.307C140.138 148.413 140.45 150.707 143.13 150.707C145.66 150.707 146.034 148.413 146.034 146.332C146.034 144.225 145.834 141.695 143.08 141.695ZM143.08 142.642C144.937 142.642 144.9 144.948 144.9 146.257C144.9 147.528 144.912 149.772 143.105 149.772C141.297 149.772 141.26 147.616 141.26 146.307C141.26 144.961 141.222 142.642 143.08 142.642Z" fill="black"/>
<rect x="190.192" y="138.205" width="22.5626" height="14.5993" rx="7.29967" fill="#CCCCCC"/>
<circle cx="197.492" cy="145.505" r="5.97246" fill="white"/>
</g>
<rect width="232" height="51" fill="url(#paint0_linear_443_589)"/>
<rect width="232" height="46" transform="matrix(1 0 0 -1 1 171)" fill="url(#paint1_linear_443_589)"/>
<g filter="url(#filter0_d_443_589)">
<rect x="15" y="73.9482" width="203.064" height="25.2171" rx="12.6085" fill="url(#paint2_linear_443_589)"/>
<path d="M26.5402 82.7092V88.1188C26.5402 90.5744 27.5498 91.771 30.1175 91.771C32.8099 91.771 33.6948 90.4871 33.6948 87.9942V82.7092H32.5107V88.3058C32.5107 89.9387 31.9124 90.7987 30.1175 90.7987C28.4099 90.7987 27.7243 90.0134 27.7243 88.3058V82.7092H26.5402ZM41.8801 85.3143C41.8053 83.4072 40.509 82.5347 38.6268 82.5347C37.0313 82.5347 35.411 83.2452 35.411 85.065C35.411 86.9347 37.0687 87.1715 38.5022 87.4956C39.9605 87.8321 41.0823 88.0565 41.0823 89.2033C41.0823 90.4622 39.9107 90.8236 38.8761 90.8236C37.4551 90.8236 36.2835 90.2627 36.2336 88.6548H35.0993C35.0993 90.7987 36.6574 91.7834 38.7764 91.7834C40.4716 91.7834 42.2291 91.0605 42.2291 89.0911C42.2291 87.2214 40.3843 86.7727 38.9384 86.4735C37.5673 86.1868 36.5328 85.9749 36.5328 84.9778C36.5328 84.0429 37.2682 83.5069 38.5396 83.5069C39.8483 83.5069 40.6087 84.0305 40.7458 85.3143H41.8801ZM43.6804 82.7092V91.584H46.7841C49.7881 91.584 50.9722 89.9636 50.9722 87.0718C50.9722 84.0305 49.5637 82.7092 46.5722 82.7092H43.6804ZM44.8521 83.7188H46.5847C48.9903 83.7188 49.813 84.8407 49.813 87.2089C49.813 89.4899 48.8781 90.5744 46.6345 90.5744H44.8521V83.7188ZM58.6142 82.7092H51.4845V83.7313H54.4635V91.584H55.6352V83.7313H58.6142V82.7092ZM66.4736 82.4973H65.6011L61.8742 91.7959H62.7717L66.4736 82.4973ZM77.9077 82.7092H76.3746L71.8749 87.1092V82.7092H70.7032V91.584H71.8749V88.4678L73.3457 87.0718L76.5616 91.584H78.0573L74.1684 86.2741L77.9077 82.7092ZM79.017 82.7092V91.584H80.1886V87.7449H82.5195C84.1274 87.7449 84.5139 88.1313 84.5886 89.627C84.6136 90.1381 84.6011 91.1353 84.8878 91.584H86.234C85.7603 91.1103 85.7603 90.2129 85.7229 89.5024C85.6731 88.4304 85.6232 87.5829 84.3767 87.3211C85.2867 87.0593 85.8974 86.1993 85.8974 85.1647C85.8974 83.2577 84.5886 82.7092 82.9184 82.7092H79.017ZM80.1886 83.7064H82.7065C83.7535 83.7064 84.7257 83.9183 84.7257 85.2395C84.7257 86.6979 83.5416 86.8101 82.3949 86.8101H80.1886V83.7064ZM86.5206 82.7092L88.8016 91.584H90.0356L92.1047 84.1551L94.1489 91.584H95.3829L97.7511 82.7092H96.5795L94.7596 90.1256L92.7778 82.7092H91.4939L89.4871 90.1256L87.7296 82.7092H86.5206Z" fill="white"/>
<path d="M119.007 82.7591H118.172C117.872 84.0803 116.938 84.3919 115.629 84.3919V85.1897H117.847V91.584H119.007V82.7591ZM122.044 85.6135H123.078C123.116 84.367 123.739 83.669 124.798 83.669C125.721 83.669 126.332 84.2424 126.332 85.1149C126.332 86.0123 125.646 86.5732 124.549 86.5732C124.425 86.5732 124.362 86.5732 124.188 86.5608V87.4582C124.449 87.4208 124.549 87.4084 124.761 87.4084C125.958 87.4084 126.718 88.069 126.718 89.1035C126.718 90.1256 125.933 90.8236 124.811 90.8236C123.639 90.8236 122.941 90.1132 122.891 88.8542H121.844V89.0163C121.844 90.699 123.016 91.7585 124.798 91.7585C126.606 91.7585 127.865 90.6741 127.852 89.0287C127.852 87.9568 127.229 87.1341 126.232 86.8973C126.992 86.5732 127.441 85.8877 127.441 85.0526C127.441 83.669 126.406 82.7466 124.848 82.7466C123.103 82.7466 122.094 83.7812 122.044 85.6135ZM131.849 82.7466C129.119 82.7466 128.908 85.252 128.908 87.3585C128.908 89.465 129.219 91.7585 131.899 91.7585C134.429 91.7585 134.803 89.465 134.803 87.3834C134.803 85.2769 134.604 82.7466 131.849 82.7466ZM131.849 83.6939C133.706 83.6939 133.669 85.9999 133.669 87.3086C133.669 88.58 133.682 90.8236 131.874 90.8236C130.067 90.8236 130.029 88.6673 130.029 87.3585C130.029 86.0123 129.992 83.6939 131.849 83.6939ZM137.379 86.8599C136.382 87.2214 135.821 88.0191 135.821 89.0911C135.821 90.699 136.993 91.7585 138.75 91.7585C140.583 91.7585 141.742 90.699 141.742 89.0163C141.742 87.9568 141.218 87.2214 140.184 86.8599C140.982 86.486 141.393 85.8254 141.393 84.9528C141.393 83.6565 140.308 82.7466 138.788 82.7466C137.242 82.7466 136.158 83.669 136.158 85.0027C136.158 85.8627 136.606 86.5358 137.379 86.8599ZM138.788 83.6939C139.71 83.6939 140.308 84.2299 140.308 85.0775C140.308 85.9126 139.71 86.461 138.788 86.461C137.865 86.461 137.242 85.9126 137.242 85.0775C137.242 84.2424 137.865 83.6939 138.788 83.6939ZM138.75 87.3211C139.872 87.3211 140.633 88.0316 140.633 89.0786C140.633 90.1256 139.872 90.861 138.775 90.861C137.703 90.861 136.931 90.1132 136.931 89.0661C136.931 88.0565 137.691 87.3211 138.75 87.3211ZM144.667 90.2004H143.283V91.584H144.667V90.2004ZM146.291 85.6135H147.326C147.363 84.367 147.986 83.669 149.046 83.669C149.968 83.669 150.579 84.2424 150.579 85.1149C150.579 86.0123 149.894 86.5732 148.797 86.5732C148.672 86.5732 148.61 86.5732 148.435 86.5608V87.4582C148.697 87.4208 148.797 87.4084 149.009 87.4084C150.205 87.4084 150.965 88.069 150.965 89.1035C150.965 90.1256 150.18 90.8236 149.058 90.8236C147.887 90.8236 147.189 90.1132 147.139 88.8542H146.092V89.0163C146.092 90.699 147.264 91.7585 149.046 91.7585C150.853 91.7585 152.112 90.6741 152.1 89.0287C152.1 87.9568 151.477 87.1341 150.479 86.8973C151.24 86.5732 151.688 85.8877 151.688 85.0526C151.688 83.669 150.654 82.7466 149.096 82.7466C147.351 82.7466 146.341 83.7812 146.291 85.6135ZM153.267 89.4525C153.367 90.9109 154.426 91.7585 155.897 91.7585C158.44 91.7585 159.026 89.0661 159.026 87.0593C159.026 85.0401 158.54 82.7466 155.985 82.7466C154.252 82.7466 153.068 83.9432 153.068 85.7132C153.068 87.4208 154.165 88.58 155.773 88.58C156.757 88.58 157.43 88.1812 157.929 87.371C157.929 87.6078 157.929 87.695 157.904 87.9568C157.804 89.1659 157.455 90.8361 155.935 90.8361C155.037 90.8361 154.426 90.3126 154.314 89.4525H153.267ZM155.935 83.6939C157.019 83.6939 157.742 84.4792 157.742 85.7007C157.742 86.8599 157.019 87.6327 155.935 87.6327C154.775 87.6327 154.19 86.7477 154.19 85.6758C154.19 84.4792 154.9 83.6939 155.935 83.6939Z" fill="white"/>
<rect x="190.192" y="79.2568" width="22.5626" height="14.5993" rx="7.29967" fill="#35347C"/>
<circle cx="205.455" cy="86.5574" r="5.97246" fill="white"/>
</g>
<defs>
<filter id="filter0_d_443_589" x="7.03672" y="65.985" width="224.299" height="46.4522" filterUnits="userSpaceOnUse" color-interpolation-filters="sRGB">
<feFlood flood-opacity="0" result="BackgroundImageFix"/>
<feColorMatrix in="SourceAlpha" type="matrix" values="0 0 0 0 0 0 0 0 0 0 0 0 0 0 0 0 0 0 127 0" result="hardAlpha"/>
<feOffset dx="2.65443" dy="2.65443"/>
<feGaussianBlur stdDeviation="5.30885"/>
<feComposite in2="hardAlpha" operator="out"/>
<feColorMatrix type="matrix" values="0 0 0 0 0 0 0 0 0 0 0 0 0 0 0 0 0 0 0.15 0"/>
<feBlend mode="normal" in2="BackgroundImageFix" result="effect1_dropShadow_443_589"/>
<feBlend mode="normal" in="SourceGraphic" in2="effect1_dropShadow_443_589" result="shape"/>
</filter>
<linearGradient id="paint0_linear_443_589" x1="116" y1="0" x2="116" y2="51" gradientUnits="userSpaceOnUse">
<stop offset="0.350732" stop-color="white"/>
<stop offset="0.694338" stop-color="white" stop-opacity="0.77"/>
<stop offset="1" stop-color="white" stop-opacity="0"/>
</linearGradient>
<linearGradient id="paint1_linear_443_589" x1="116" y1="0" x2="116" y2="46" gradientUnits="userSpaceOnUse">
<stop offset="0.350732" stop-color="white"/>
<stop offset="0.694338" stop-color="white" stop-opacity="0.77"/>
<stop offset="1" stop-color="white" stop-opacity="0"/>
</linearGradient>
<linearGradient id="paint2_linear_443_589" x1="180.101" y1="78.5088" x2="78.3687" y2="110.126" gradientUnits="userSpaceOnUse">
<stop stop-color="#504EBB"/>
<stop offset="1" stop-color="#7C7BCC"/>
</linearGradient>
</defs>
</svg>
