<svg width="127" height="121" viewBox="0 0 127 121" fill="none" xmlns="http://www.w3.org/2000/svg">
<circle cx="87.524" cy="39.5239" r="38.6159" transform="rotate(-123.549 87.524 39.5239)" fill="url(#paint0_linear_0_1)" fill-opacity="0.4"/>
<circle cx="87.524" cy="39.5239" r="38.6159" transform="rotate(-123.549 87.524 39.5239)" fill="#4EBB66"/>
<circle cx="87.524" cy="39.5239" r="38.6159" transform="rotate(-123.549 87.524 39.5239)" fill="url(#paint1_linear_0_1)" fill-opacity="0.4"/>
<circle cx="87.524" cy="39.5239" r="38.6159" transform="rotate(-123.549 87.524 39.5239)" fill="url(#paint2_linear_0_1)" fill-opacity="0.4"/>
<g filter="url(#filter0_f_0_1)">
<circle cx="59.5745" cy="69.5744" r="30.716" transform="rotate(-123.549 59.5745 69.5744)" fill="black" fill-opacity="0.4"/>
</g>
<path d="M101.678 35.9673V38.3111H74.1491V35.9673H101.678ZM101.678 40.7507V43.0945H74.1491V40.7507H101.678ZM77.196 29L81.5639 45.8963H81.7663L86.2195 29H89.6072L94.0604 45.907H94.2628L98.6307 29H101.827L95.9247 50.8182H92.5369L87.9986 34.4759H87.8281L83.2898 50.8182H79.902L74 29H77.196Z" fill="url(#paint3_linear_0_1)"/>
<path d="M101.678 35.9673V38.3111H74.1491V35.9673H101.678ZM101.678 40.7507V43.0945H74.1491V40.7507H101.678ZM77.196 29L81.5639 45.8963H81.7663L86.2195 29H89.6072L94.0604 45.907H94.2628L98.6307 29H101.827L95.9247 50.8182H92.5369L87.9986 34.4759H87.8281L83.2898 50.8182H79.902L74 29H77.196Z" fill="#A9F4BA"/>
<circle cx="39.524" cy="78.5239" r="38.6159" transform="rotate(-123.549 39.524 78.5239)" fill="url(#paint4_linear_0_1)" fill-opacity="0.4"/>
<circle cx="39.524" cy="78.5239" r="38.6159" transform="rotate(-123.549 39.524 78.5239)" fill="url(#paint5_radial_0_1)"/>
<circle cx="39.524" cy="78.5239" r="38.6159" transform="rotate(-123.549 39.524 78.5239)" fill="#504EBB"/>
<circle cx="39.524" cy="78.5239" r="38.6159" transform="rotate(-123.549 39.524 78.5239)" fill="url(#paint6_linear_0_1)" fill-opacity="0.4"/>
<path d="M43.408 81.287H27.9707V77.4605H43.3496C44.6738 77.4605 45.7692 77.2415 46.6357 76.8033C47.5023 76.3554 48.1449 75.742 48.5635 74.9631C48.9822 74.1744 49.1916 73.2689 49.1916 72.2466C49.1916 71.234 48.9822 70.3285 48.5635 69.5301C48.1449 68.7317 47.5071 68.1037 46.6503 67.6461C45.7935 67.1787 44.7127 66.945 43.408 66.945H37.0403V93.0001H32.542V63.0894H43.408C45.6767 63.0894 47.5704 63.4983 49.0893 64.3162C50.618 65.134 51.762 66.2343 52.5215 67.6169C53.2907 68.9995 53.6753 70.5378 53.6753 72.232C53.6753 73.9456 53.2858 75.4889 52.5069 76.8617C51.7377 78.2249 50.5888 79.3056 49.0601 80.104C47.5412 80.8927 45.6572 81.287 43.408 81.287ZM43.6271 83.799V87.6401H27.9707V83.799H43.6271Z" fill="#9695EE"/>
<defs>
<filter id="filter0_f_0_1" x="8.85498" y="18.855" width="101.439" height="101.439" filterUnits="userSpaceOnUse" color-interpolation-filters="sRGB">
<feFlood flood-opacity="0" result="BackgroundImageFix"/>
<feBlend mode="normal" in="SourceGraphic" in2="BackgroundImageFix" result="shape"/>
<feGaussianBlur stdDeviation="10" result="effect1_foregroundBlur_0_1"/>
</filter>
<linearGradient id="paint0_linear_0_1" x1="56.0099" y1="0.907986" x2="72.8658" y2="36.8758" gradientUnits="userSpaceOnUse">
<stop stop-color="white"/>
<stop offset="1" stop-color="white" stop-opacity="0"/>
</linearGradient>
<linearGradient id="paint1_linear_0_1" x1="56.0099" y1="0.907986" x2="75.3945" y2="38.8387" gradientUnits="userSpaceOnUse">
<stop stop-color="white"/>
<stop offset="1" stop-color="white" stop-opacity="0"/>
</linearGradient>
<linearGradient id="paint2_linear_0_1" x1="126.192" y1="-9.23577" x2="91.6502" y2="37.1042" gradientUnits="userSpaceOnUse">
<stop/>
<stop offset="1" stop-opacity="0"/>
</linearGradient>
<linearGradient id="paint3_linear_0_1" x1="87.912" y1="35.8181" x2="87.912" y2="80.8181" gradientUnits="userSpaceOnUse">
<stop stop-color="#F1619D"/>
<stop offset="1" stop-color="#5D6BE5"/>
</linearGradient>
<linearGradient id="paint4_linear_0_1" x1="8.0099" y1="39.908" x2="24.8658" y2="75.8758" gradientUnits="userSpaceOnUse">
<stop stop-color="white"/>
<stop offset="1" stop-color="white" stop-opacity="0"/>
</linearGradient>
<radialGradient id="paint5_radial_0_1" cx="0" cy="0" r="1" gradientUnits="userSpaceOnUse" gradientTransform="translate(50.6553 39.908) rotate(116.355) scale(92.5392)">
<stop offset="0.348374" stop-color="#5C6AE4"/>
<stop offset="0.676621" stop-color="#F0609D"/>
<stop offset="1" stop-color="#F0609D"/>
</radialGradient>
<linearGradient id="paint6_linear_0_1" x1="8.0099" y1="39.908" x2="24.8658" y2="75.8758" gradientUnits="userSpaceOnUse">
<stop stop-color="white"/>
<stop offset="1" stop-color="white" stop-opacity="0"/>
</linearGradient>
</defs>
</svg>
