<svg width="146" height="152" viewBox="0 0 146 152" fill="none" xmlns="http://www.w3.org/2000/svg">
<g opacity="0.6" filter="url(#filter0_f_333_3059)">
<path d="M48.1568 103.454C44.6319 113.491 52.0795 124 62.7168 124H95.0505C101.602 124 107.439 119.863 109.61 113.682L117.267 91.8825C119.574 85.3118 117.195 78.0095 111.46 74.0595L97.4063 64.381C92.1355 60.7511 85.1712 60.7511 79.9005 64.381L60.2715 77.8993C57.5805 79.7526 55.5472 82.4122 54.4644 85.4951L48.1568 103.454Z" fill="#140D3D"/>
</g>
<path d="M8.32865 94.1764C4.67911 104.239 12.1321 114.87 22.8358 114.87H79.7415C86.2354 114.87 92.0344 110.804 94.2486 104.7L104.878 75.394C107.459 68.2766 104.496 60.3376 97.8822 56.6522L71.9996 42.2291C67.3298 39.6269 61.6458 39.6269 56.976 42.2291L24.6509 60.2422C21.4059 62.0505 18.9221 64.9686 17.6555 68.4607L8.32865 94.1764Z" fill="#504EBB"/>
<path d="M8.32865 94.1764C4.67911 104.239 12.1321 114.87 22.8358 114.87H79.7415C86.2354 114.87 92.0344 110.804 94.2486 104.7L104.878 75.394C107.459 68.2766 104.496 60.3376 97.8822 56.6522L71.9996 42.2291C67.3298 39.6269 61.6458 39.6269 56.976 42.2291L24.6509 60.2422C21.4059 62.0505 18.9221 64.9686 17.6555 68.4607L8.32865 94.1764Z" fill="url(#paint0_linear_333_3059)" fill-opacity="0.4"/>
<circle cx="71.9411" cy="13.6765" r="13.6765" fill="#D9D9D9"/>
<circle cx="71.9411" cy="13.6765" r="13.6765" fill="#4EBB66"/>
<circle cx="71.9411" cy="13.6765" r="13.6765" fill="url(#paint1_linear_333_3059)" fill-opacity="0.4"/>
<circle cx="71.9411" cy="13.6765" r="13.6765" fill="url(#paint2_linear_333_3059)" fill-opacity="0.4"/>
<circle cx="89.2644" cy="51.0588" r="13.6765" fill="#D9D9D9"/>
<circle cx="89.2644" cy="51.0588" r="13.6765" fill="#4EBB66"/>
<circle cx="89.2644" cy="51.0588" r="13.6765" fill="url(#paint3_linear_333_3059)" fill-opacity="0.4"/>
<circle cx="89.2644" cy="51.0588" r="13.6765" fill="url(#paint4_linear_333_3059)" fill-opacity="0.4"/>
<path d="M4.48193 99.438C4.48193 107.961 11.391 114.87 19.9138 114.87H79.2909C87.8137 114.87 94.7228 107.961 94.7228 99.438V59.716C94.7228 54.5963 92.1836 49.8098 87.9446 46.9389L58.256 26.8315C53.0298 23.292 46.1749 23.292 40.9487 26.8315L11.2601 46.9389C7.0211 49.8098 4.48193 54.5963 4.48193 59.716V99.438Z" fill="#504EBB"/>
<path d="M4.48193 99.438C4.48193 107.961 11.391 114.87 19.9138 114.87H79.2909C87.8137 114.87 94.7228 107.961 94.7228 99.438V59.716C94.7228 54.5963 92.1836 49.8098 87.9446 46.9389L58.256 26.8315C53.0298 23.292 46.1749 23.292 40.9487 26.8315L11.2601 46.9389C7.0211 49.8098 4.48193 54.5963 4.48193 59.716V99.438Z" fill="url(#paint5_linear_333_3059)" fill-opacity="0.4"/>
<path d="M30.1434 82.6663H20.2388V79.516H30.0344C30.7728 79.516 31.378 79.4071 31.8501 79.1892C32.3222 78.9713 32.6702 78.6627 32.8941 78.2632C33.1181 77.8638 33.23 77.3917 33.23 76.847C33.23 76.3144 33.1181 75.8332 32.8941 75.4035C32.6702 74.9738 32.3282 74.6318 31.8683 74.3777C31.4083 74.1235 30.8333 73.9964 30.1434 73.9964H26.7843V89.3934H22.8806V70.8008H30.1434C31.6141 70.8008 32.8729 71.064 33.92 71.5906C34.9731 72.1111 35.778 72.8252 36.3348 73.7331C36.8917 74.6349 37.167 75.6577 37.161 76.8016C37.167 77.9999 36.8856 79.0379 36.3167 79.9155C35.7478 80.7931 34.9368 81.4709 33.8837 81.9491C32.8306 82.4272 31.5838 82.6663 30.1434 82.6663ZM30.8424 83.8646V87.0148H20.2388V83.8646H30.8424Z" fill="#9695EE"/>
<path d="M84.1923 75.4872V77.4069H60.5092V75.4872H84.1923ZM84.1923 78.8817V80.8015H60.5092V78.8817H84.1923ZM63.8863 70.5219L67.1412 82.9394H67.2895L70.6404 70.5219H74.0611L77.412 82.9656H77.5604L80.8153 70.5219H84.2709L79.5325 88.3933H75.6842L72.4293 76.7088H72.2897L69.0173 88.3933H65.1691L60.4307 70.5219H63.8863Z" fill="#9695EE"/>
<path d="M45.1352 70.2059L42.7646 72.5993L49.8764 79.7794L42.7646 86.9595L45.1352 89.3529L54.6176 79.7794L45.1352 70.2059Z" fill="#9695EE"/>
<defs>
<filter id="filter0_f_333_3059" x="19.919" y="34.3056" width="125.574" height="117.047" filterUnits="userSpaceOnUse" color-interpolation-filters="sRGB">
<feFlood flood-opacity="0" result="BackgroundImageFix"/>
<feBlend mode="normal" in="SourceGraphic" in2="BackgroundImageFix" result="shape"/>
<feGaussianBlur stdDeviation="13.6765" result="effect1_foregroundBlur_333_3059"/>
</filter>
<linearGradient id="paint0_linear_333_3059" x1="57.5286" y1="87.4318" x2="57.9049" y2="37.846" gradientUnits="userSpaceOnUse">
<stop/>
<stop offset="1" stop-opacity="0"/>
</linearGradient>
<linearGradient id="paint1_linear_333_3059" x1="60.7799" y1="-5.16139e-08" x2="67.6452" y2="13.4338" gradientUnits="userSpaceOnUse">
<stop stop-color="white"/>
<stop offset="1" stop-color="white" stop-opacity="0"/>
</linearGradient>
<linearGradient id="paint2_linear_333_3059" x1="85.6359" y1="-3.59258" x2="73.4025" y2="12.8195" gradientUnits="userSpaceOnUse">
<stop/>
<stop offset="1" stop-opacity="0"/>
</linearGradient>
<linearGradient id="paint3_linear_333_3059" x1="78.1031" y1="37.3824" x2="84.9685" y2="50.8161" gradientUnits="userSpaceOnUse">
<stop stop-color="white"/>
<stop offset="1" stop-color="white" stop-opacity="0"/>
</linearGradient>
<linearGradient id="paint4_linear_333_3059" x1="102.959" y1="33.7898" x2="90.7257" y2="50.2019" gradientUnits="userSpaceOnUse">
<stop/>
<stop offset="1" stop-opacity="0"/>
</linearGradient>
<linearGradient id="paint5_linear_333_3059" x1="12.7799" y1="114.87" x2="33.7914" y2="71.7817" gradientUnits="userSpaceOnUse">
<stop stop-color="white"/>
<stop offset="1" stop-color="white" stop-opacity="0"/>
</linearGradient>
</defs>
</svg>
