<svg
	width="19"
	height="19"
	viewBox="0 0 19 19"
	fill="none"
	xmlns="http://www.w3.org/2000/svg"
>
	<path
		d="M9.5 19C14.7467 19 19 14.7467 19 9.5C19 4.25329 14.7467 0 9.5 0C4.25329 0 0 4.25329 0 9.5C0 14.7467 4.25329 19 9.5 19Z"
		fill="#F7931A"
	/>
	<path
		d="M13.7685 8.32438C13.9549 7.07988 13.0067 6.41072 11.7112 5.96422L12.1315 4.27797L11.1055 4.02266L10.6959 5.66438C10.4263 5.59669 10.1496 5.53375 9.87351 5.47081L10.2862 3.81841L9.26017 3.5625L8.83979 5.24816C8.61654 5.19709 8.39686 5.14722 8.18429 5.09378L8.18548 5.08844L6.76998 4.73516L6.49686 5.83122C6.49686 5.83122 7.25864 6.00578 7.24261 6.01647C7.65823 6.12038 7.73304 6.39528 7.72057 6.61378L7.24201 8.53456C7.27051 8.54169 7.30732 8.55237 7.34889 8.56841L7.24023 8.54169L6.56929 11.2326C6.51823 11.3584 6.38939 11.5478 6.09845 11.476C6.10914 11.4908 5.3527 11.2902 5.3527 11.2902L4.84326 12.4646L6.1792 12.7977C6.42739 12.86 6.67082 12.9253 6.91011 12.9865L6.48557 14.6917L7.51098 14.9471L7.93136 13.2608C8.21161 13.3362 8.48354 13.4063 8.74954 13.4728L8.33036 15.1519L9.35636 15.4072L9.78089 13.7055C11.5313 14.0368 12.847 13.9032 13.401 12.3203C13.8475 11.0461 13.379 10.3105 12.4581 9.83131C13.129 9.67694 13.6337 9.23578 13.7685 8.32438ZM11.4232 11.6126C11.1067 12.8873 8.96032 12.198 8.26445 12.0252L8.82851 9.766C9.52439 9.93997 11.7551 10.2838 11.4232 11.6126ZM11.7409 8.30597C11.4517 9.46556 9.6657 8.87597 9.08679 8.73169L9.59742 6.68325C10.1763 6.82753 12.0425 7.0965 11.7409 8.30597Z"
		fill="white"
	/>
</svg>