<svg width="112" height="112" viewBox="0 0 112 112" fill="none" xmlns="http://www.w3.org/2000/svg">
<path d="M23 112V71.7382C58.201 71.7382 81.0806 36 111 36L111 81.2324C78.1473 81.2324 63.4809 112 23 112Z" fill="#4EBB66"/>
<path d="M23 112V71.7382C58.201 71.7382 81.0806 36 111 36L111 81.2324C78.1473 81.2324 63.4809 112 23 112Z" fill="url(#paint0_linear_501_339)" fill-opacity="0.5"/>
<g filter="url(#filter0_f_501_339)">
<path d="M64.1428 39.6635C74.0475 24.2411 92 20 92 20L91.9998 55.086C91.9998 55.086 81.5533 60.4838 71.107 72.8217C53.8857 93.1615 33.9643 92.4853 27 91.7142V60.4838C35.2539 59.9697 54.238 55.086 64.1428 39.6635Z" fill="black" fill-opacity="0.3"/>
</g>
<path d="M0 84V44.2679C35.201 44.2679 58.0806 9 88 9L87.9998 53.6372C55.1473 53.6372 40.4809 84.0001 0 84Z" fill="#4EBB66"/>
<path d="M0 84V44.2679C35.201 44.2679 58.0806 9 88 9L87.9998 53.6372C55.1473 53.6372 40.4809 84.0001 0 84Z" fill="url(#paint1_linear_501_339)" fill-opacity="0.5"/>
<path d="M51.1117 41.5276L51.8808 43.2866L30.1814 52.7747L29.4123 51.0157L51.1117 41.5276ZM52.4717 44.6378L53.2408 46.3968L31.5414 55.8849L30.7723 54.1259L52.4717 44.6378ZM30.5173 45.1134L38.4744 55.1868L38.6103 55.1274L36.7057 42.4075L39.8399 41.0371L47.8954 51.096L48.0313 51.0366L46.0283 38.3312L49.1945 36.9468L52.0128 55.2196L48.4868 56.7614L40.8234 47.3596L40.6955 47.4155L42.3784 59.4323L38.8524 60.974L27.3511 46.4978L30.5173 45.1134Z" fill="#A9F4BA"/>
<defs>
<filter id="filter0_f_501_339" x="7" y="0" width="105" height="112" filterUnits="userSpaceOnUse" color-interpolation-filters="sRGB">
<feFlood flood-opacity="0" result="BackgroundImageFix"/>
<feBlend mode="normal" in="SourceGraphic" in2="BackgroundImageFix" result="shape"/>
<feGaussianBlur stdDeviation="10" result="effect1_foregroundBlur_501_339"/>
</filter>
<linearGradient id="paint0_linear_501_339" x1="116.28" y1="55.971" x2="10.682" y2="55.971" gradientUnits="userSpaceOnUse">
<stop stop-color="#4EBB66"/>
<stop offset="0.34375" stop-color="#82CD93" stop-opacity="0.5"/>
<stop offset="0.776923" stop-color="#266835"/>
<stop offset="1" stop-color="#4EBB66"/>
</linearGradient>
<linearGradient id="paint1_linear_501_339" x1="93.2799" y1="28.7082" x2="-12.318" y2="28.7082" gradientUnits="userSpaceOnUse">
<stop stop-color="#4EBB66"/>
<stop offset="0.34375" stop-color="#82CD93" stop-opacity="0.5"/>
<stop offset="0.776923" stop-color="#266835"/>
<stop offset="1" stop-color="#4EBB66"/>
</linearGradient>
</defs>
</svg>
