<svg width="145" height="153" viewBox="0 0 145 153" fill="none" xmlns="http://www.w3.org/2000/svg">
<g opacity="0.6" filter="url(#filter0_f_333_3118)">
<path d="M47.3336 104.454C43.8087 114.491 51.2563 125 61.8935 125H94.2273C100.779 125 106.616 120.863 108.787 114.682L116.443 92.8825C118.751 86.3118 116.372 79.0095 110.636 75.0595L96.583 65.381C91.3123 61.7511 84.348 61.7511 79.0773 65.381L59.4483 78.8993C56.7573 80.7526 54.7239 83.4122 53.6412 86.4951L47.3336 104.454Z" fill="#140D3D"/>
</g>
<path d="M7.50541 95.1765C3.85587 105.239 11.3088 115.87 22.0125 115.87H78.9182C85.4121 115.87 91.2112 111.805 93.4254 105.7L104.054 76.3941C106.636 69.2767 103.673 61.3377 97.059 57.6523L71.1763 43.2293C66.5065 40.627 60.8226 40.627 56.1528 43.2293L23.8276 61.2423C20.5827 63.0506 18.0989 65.9687 16.8323 69.4609L7.50541 95.1765Z" fill="#504EBB"/>
<path d="M7.50541 95.1765C3.85587 105.239 11.3088 115.87 22.0125 115.87H78.9182C85.4121 115.87 91.2112 111.805 93.4254 105.7L104.054 76.3941C106.636 69.2767 103.673 61.3377 97.059 57.6523L71.1763 43.2293C66.5065 40.627 60.8226 40.627 56.1528 43.2293L23.8276 61.2423C20.5827 63.0506 18.0989 65.9687 16.8323 69.4609L7.50541 95.1765Z" fill="url(#paint0_linear_333_3118)" fill-opacity="0.4"/>
<path d="M7.50541 95.1765C3.85587 105.239 11.3088 115.87 22.0125 115.87H78.9182C85.4121 115.87 91.2112 111.805 93.4254 105.7L104.054 76.3941C106.636 69.2767 103.673 61.3377 97.059 57.6523L71.1763 43.2293C66.5065 40.627 60.8226 40.627 56.1528 43.2293L23.8276 61.2423C20.5827 63.0506 18.0989 65.9687 16.8323 69.4609L7.50541 95.1765Z" fill="#2B763C"/>
<path d="M7.50541 95.1765C3.85587 105.239 11.3088 115.87 22.0125 115.87H78.9182C85.4121 115.87 91.2112 111.805 93.4254 105.7L104.054 76.3941C106.636 69.2767 103.673 61.3377 97.059 57.6523L71.1763 43.2293C66.5065 40.627 60.8226 40.627 56.1528 43.2293L23.8276 61.2423C20.5827 63.0506 18.0989 65.9687 16.8323 69.4609L7.50541 95.1765Z" fill="url(#paint1_linear_333_3118)" fill-opacity="0.4"/>
<path d="M7.50541 95.1765C3.85587 105.239 11.3088 115.87 22.0125 115.87H78.9182C85.4121 115.87 91.2112 111.805 93.4254 105.7L104.054 76.3941C106.636 69.2767 103.673 61.3377 97.059 57.6523L71.1763 43.2293C66.5065 40.627 60.8226 40.627 56.1528 43.2293L23.8276 61.2423C20.5827 63.0506 18.0989 65.9687 16.8323 69.4609L7.50541 95.1765Z" fill="url(#paint2_linear_333_3118)" fill-opacity="0.4"/>
<path d="M7.50541 95.1765C3.85587 105.239 11.3088 115.87 22.0125 115.87H78.9182C85.4121 115.87 91.2112 111.805 93.4254 105.7L104.054 76.3941C106.636 69.2767 103.673 61.3377 97.059 57.6523L71.1763 43.2293C66.5065 40.627 60.8226 40.627 56.1528 43.2293L23.8276 61.2423C20.5827 63.0506 18.0989 65.9687 16.8323 69.4609L7.50541 95.1765Z" fill="#504EBB"/>
<path d="M7.50541 95.1765C3.85587 105.239 11.3088 115.87 22.0125 115.87H78.9182C85.4121 115.87 91.2112 111.805 93.4254 105.7L104.054 76.3941C106.636 69.2767 103.673 61.3377 97.059 57.6523L71.1763 43.2293C66.5065 40.627 60.8226 40.627 56.1528 43.2293L23.8276 61.2423C20.5827 63.0506 18.0989 65.9687 16.8323 69.4609L7.50541 95.1765Z" fill="url(#paint3_linear_333_3118)" fill-opacity="0.4"/>
<circle cx="70.9411" cy="13.6765" r="13.6765" fill="#D9D9D9"/>
<circle cx="70.9411" cy="13.6765" r="13.6765" fill="#4EBB66"/>
<circle cx="70.9411" cy="13.6765" r="13.6765" fill="url(#paint4_linear_333_3118)" fill-opacity="0.4"/>
<circle cx="70.9411" cy="13.6765" r="13.6765" fill="url(#paint5_linear_333_3118)" fill-opacity="0.4"/>
<circle cx="88.2644" cy="51.0588" r="13.6765" fill="#D9D9D9"/>
<circle cx="88.2644" cy="51.0588" r="13.6765" fill="#4EBB66"/>
<circle cx="88.2644" cy="51.0588" r="13.6765" fill="url(#paint6_linear_333_3118)" fill-opacity="0.4"/>
<circle cx="88.2644" cy="51.0588" r="13.6765" fill="url(#paint7_linear_333_3118)" fill-opacity="0.4"/>
<path d="M3.65869 100.438C3.65869 108.961 10.5678 115.87 19.0905 115.87H78.4677C86.9904 115.87 93.8995 108.961 93.8995 100.438V60.7161C93.8995 55.5964 91.3604 50.81 87.1213 47.939L57.4328 27.8317C52.2066 24.2921 45.3516 24.2921 40.1255 27.8317L10.4369 47.939C6.19786 50.81 3.65869 55.5964 3.65869 60.7161V100.438Z" fill="#504EBB"/>
<path d="M3.65869 100.438C3.65869 108.961 10.5678 115.87 19.0905 115.87H78.4677C86.9904 115.87 93.8995 108.961 93.8995 100.438V60.7161C93.8995 55.5964 91.3604 50.81 87.1213 47.939L57.4328 27.8317C52.2066 24.2921 45.3516 24.2921 40.1255 27.8317L10.4369 47.939C6.19786 50.81 3.65869 55.5964 3.65869 60.7161V100.438Z" fill="url(#paint8_linear_333_3118)" fill-opacity="0.4"/>
<path d="M3.65869 100.438C3.65869 108.961 10.5678 115.87 19.0905 115.87H78.4677C86.9904 115.87 93.8995 108.961 93.8995 100.438V60.7161C93.8995 55.5964 91.3604 50.81 87.1213 47.939L57.4328 27.8317C52.2066 24.2921 45.3516 24.2921 40.1255 27.8317L10.4369 47.939C6.19786 50.81 3.65869 55.5964 3.65869 60.7161V100.438Z" fill="#4EBB66"/>
<path d="M3.65869 100.438C3.65869 108.961 10.5678 115.87 19.0905 115.87H78.4677C86.9904 115.87 93.8995 108.961 93.8995 100.438V60.7161C93.8995 55.5964 91.3604 50.81 87.1213 47.939L57.4328 27.8317C52.2066 24.2921 45.3516 24.2921 40.1255 27.8317L10.4369 47.939C6.19786 50.81 3.65869 55.5964 3.65869 60.7161V100.438Z" fill="url(#paint9_linear_333_3118)" fill-opacity="0.4"/>
<path d="M3.65869 100.438C3.65869 108.961 10.5678 115.87 19.0905 115.87H78.4677C86.9904 115.87 93.8995 108.961 93.8995 100.438V60.7161C93.8995 55.5964 91.3604 50.81 87.1213 47.939L57.4328 27.8317C52.2066 24.2921 45.3516 24.2921 40.1255 27.8317L10.4369 47.939C6.19786 50.81 3.65869 55.5964 3.65869 60.7161V100.438Z" fill="url(#paint10_linear_333_3118)" fill-opacity="0.4"/>
<path d="M3.65869 100.438C3.65869 108.961 10.5678 115.87 19.0905 115.87H78.4677C86.9904 115.87 93.8995 108.961 93.8995 100.438V60.7161C93.8995 55.5964 91.3604 50.81 87.1213 47.939L57.4328 27.8317C52.2066 24.2921 45.3516 24.2921 40.1255 27.8317L10.4369 47.939C6.19786 50.81 3.65869 55.5964 3.65869 60.7161V100.438Z" fill="#504EBB"/>
<path d="M3.65869 100.438C3.65869 108.961 10.5678 115.87 19.0905 115.87H78.4677C86.9904 115.87 93.8995 108.961 93.8995 100.438V60.7161C93.8995 55.5964 91.3604 50.81 87.1213 47.939L57.4328 27.8317C52.2066 24.2921 45.3516 24.2921 40.1255 27.8317L10.4369 47.939C6.19786 50.81 3.65869 55.5964 3.65869 60.7161V100.438Z" fill="url(#paint11_linear_333_3118)" fill-opacity="0.4"/>
<g clip-path="url(#clip0_333_3118)">
<path fill-rule="evenodd" clip-rule="evenodd" d="M36.8655 68C35.6488 68.454 34.7764 69.6301 34.7764 71V83.8C34.7764 84.6487 35.1135 85.4626 35.7136 86.0627C36.3137 86.6629 37.1277 87 37.9764 87H60.3764C61.2251 87 62.039 86.6629 62.6391 86.0627C63.2392 85.4626 63.5764 84.6487 63.5764 83.8V71C63.5764 70.1513 63.2392 69.3374 62.6391 68.7373C62.3104 68.4085 61.9175 68.1587 61.4899 68H36.8655ZM47.5764 82.2V78.568C46.9663 78.2158 46.4895 77.6721 46.22 77.0213C45.9504 76.3705 45.9031 75.6489 46.0854 74.9685C46.2677 74.2881 46.6695 73.6868 47.2283 73.258C47.7872 72.8292 48.4719 72.5967 49.1764 72.5967C49.8808 72.5967 50.5655 72.8292 51.1244 73.258C51.6833 73.6868 52.085 74.2881 52.2673 74.9685C52.4496 75.6489 52.4024 76.3705 52.1328 77.0213C51.8632 77.6721 51.3864 78.2158 50.7764 78.568V82.2H47.5764Z" fill="black"/>
<path fill-rule="evenodd" clip-rule="evenodd" d="M36.8655 68C35.6488 68.454 34.7764 69.6301 34.7764 71V83.8C34.7764 84.6487 35.1135 85.4626 35.7136 86.0627C36.3137 86.6629 37.1277 87 37.9764 87H60.3764C61.2251 87 62.039 86.6629 62.6391 86.0627C63.2392 85.4626 63.5764 84.6487 63.5764 83.8V71C63.5764 70.1513 63.2392 69.3374 62.6391 68.7373C62.3104 68.4085 61.9175 68.1587 61.4899 68H36.8655ZM47.5764 82.2V78.568C46.9663 78.2158 46.4895 77.6721 46.22 77.0213C45.9504 76.3705 45.9031 75.6489 46.0854 74.9685C46.2677 74.2881 46.6695 73.6868 47.2283 73.258C47.7872 72.8292 48.4719 72.5967 49.1764 72.5967C49.8808 72.5967 50.5655 72.8292 51.1244 73.258C51.6833 73.6868 52.085 74.2881 52.2673 74.9685C52.4496 75.6489 52.4024 76.3705 52.1328 77.0213C51.8632 77.6721 51.3864 78.2158 50.7764 78.568V82.2H47.5764Z" fill="#9695EE"/>
<path d="M56.2619 58.3697L54.3678 56.8958C52.3584 55.3321 49.8102 54.6307 47.2837 54.9459C44.7572 55.261 42.4594 56.567 40.8958 58.5763C39.3321 60.5857 38.6307 63.1339 38.9459 65.6604C39.261 68.1869 40.5669 70.4847 42.5763 72.0483L44.4704 73.5223L47.4182 69.7341L45.5242 68.2602C44.5195 67.4784 43.8665 66.3295 43.709 65.0662C43.5514 63.803 43.9021 62.5289 44.6839 61.5242C45.4657 60.5195 46.6146 59.8666 47.8779 59.709C49.1411 59.5514 50.4152 59.9021 51.4199 60.6839L53.314 62.1579L56.2619 58.3697Z" fill="#9695EE"/>
</g>
<defs>
<filter id="filter0_f_333_3118" x="19.0958" y="35.3056" width="125.574" height="117.047" filterUnits="userSpaceOnUse" color-interpolation-filters="sRGB">
<feFlood flood-opacity="0" result="BackgroundImageFix"/>
<feBlend mode="normal" in="SourceGraphic" in2="BackgroundImageFix" result="shape"/>
<feGaussianBlur stdDeviation="13.6765" result="effect1_foregroundBlur_333_3118"/>
</filter>
<linearGradient id="paint0_linear_333_3118" x1="56.7054" y1="88.4319" x2="57.0816" y2="38.8462" gradientUnits="userSpaceOnUse">
<stop/>
<stop offset="1" stop-opacity="0"/>
</linearGradient>
<linearGradient id="paint1_linear_333_3118" x1="9.98004" y1="115.87" x2="25.2025" y2="73.7906" gradientUnits="userSpaceOnUse">
<stop stop-color="white"/>
<stop offset="1" stop-color="white" stop-opacity="0"/>
</linearGradient>
<linearGradient id="paint2_linear_333_3118" x1="108.605" y1="125.961" x2="79.0091" y2="69.868" gradientUnits="userSpaceOnUse">
<stop/>
<stop offset="1" stop-opacity="0"/>
</linearGradient>
<linearGradient id="paint3_linear_333_3118" x1="56.7054" y1="88.4319" x2="57.0816" y2="38.8462" gradientUnits="userSpaceOnUse">
<stop/>
<stop offset="1" stop-opacity="0"/>
</linearGradient>
<linearGradient id="paint4_linear_333_3118" x1="59.7799" y1="-5.16139e-08" x2="66.6452" y2="13.4338" gradientUnits="userSpaceOnUse">
<stop stop-color="white"/>
<stop offset="1" stop-color="white" stop-opacity="0"/>
</linearGradient>
<linearGradient id="paint5_linear_333_3118" x1="84.6359" y1="-3.59258" x2="72.4025" y2="12.8195" gradientUnits="userSpaceOnUse">
<stop/>
<stop offset="1" stop-opacity="0"/>
</linearGradient>
<linearGradient id="paint6_linear_333_3118" x1="77.1031" y1="37.3823" x2="83.9685" y2="50.8161" gradientUnits="userSpaceOnUse">
<stop stop-color="white"/>
<stop offset="1" stop-color="white" stop-opacity="0"/>
</linearGradient>
<linearGradient id="paint7_linear_333_3118" x1="101.959" y1="33.7897" x2="89.7257" y2="50.2018" gradientUnits="userSpaceOnUse">
<stop/>
<stop offset="1" stop-opacity="0"/>
</linearGradient>
<linearGradient id="paint8_linear_333_3118" x1="11.9567" y1="115.87" x2="32.9681" y2="72.7819" gradientUnits="userSpaceOnUse">
<stop stop-color="white"/>
<stop offset="1" stop-color="white" stop-opacity="0"/>
</linearGradient>
<linearGradient id="paint9_linear_333_3118" x1="11.9567" y1="115.87" x2="36.0671" y2="70.5302" gradientUnits="userSpaceOnUse">
<stop stop-color="white"/>
<stop offset="1" stop-color="white" stop-opacity="0"/>
</linearGradient>
<linearGradient id="paint10_linear_333_3118" x1="93.9598" y1="128.203" x2="51.5157" y2="73.4791" gradientUnits="userSpaceOnUse">
<stop/>
<stop offset="1" stop-opacity="0"/>
</linearGradient>
<linearGradient id="paint11_linear_333_3118" x1="11.9567" y1="115.87" x2="32.9681" y2="72.7819" gradientUnits="userSpaceOnUse">
<stop stop-color="white"/>
<stop offset="1" stop-color="white" stop-opacity="0"/>
</linearGradient>
<clipPath id="clip0_333_3118">
<rect width="32" height="32" fill="white" transform="translate(33.1768 55)"/>
</clipPath>
</defs>
</svg>
