<svg width="146" height="132" viewBox="0 0 146 132" fill="none" xmlns="http://www.w3.org/2000/svg">
<g opacity="0.6" filter="url(#filter0_f_333_3049)">
<path d="M48.1568 83.4546C44.6319 93.4908 52.0795 104 62.7168 104H95.0505C101.602 104 107.439 99.8633 109.61 93.6819L117.267 71.8826C119.574 65.3118 117.195 58.0096 111.46 54.0595L97.4063 44.3811C92.1355 40.7511 85.1712 40.7511 79.9005 44.3811L60.2715 57.8994C57.5805 59.7527 55.5472 62.4123 54.4644 65.4951L48.1568 83.4546Z" fill="#140D3D"/>
</g>
<path d="M8.32865 74.1764C4.67911 84.2388 12.1321 94.8699 22.8358 94.8699H79.7415C86.2354 94.8699 92.0344 90.8045 94.2486 84.6997L104.878 55.3941C107.459 48.2767 104.496 40.3377 97.8822 36.6523L71.9996 22.2292C67.3298 19.627 61.6458 19.627 56.976 22.2292L24.6509 40.2423C21.4059 42.0505 18.9221 44.9686 17.6555 48.4608L8.32865 74.1764Z" fill="#504EBB"/>
<path d="M8.32865 74.1764C4.67911 84.2388 12.1321 94.8699 22.8358 94.8699H79.7415C86.2354 94.8699 92.0344 90.8045 94.2486 84.6997L104.878 55.3941C107.459 48.2767 104.496 40.3377 97.8822 36.6523L71.9996 22.2292C67.3298 19.627 61.6458 19.627 56.976 22.2292L24.6509 40.2423C21.4059 42.0505 18.9221 44.9686 17.6555 48.4608L8.32865 74.1764Z" fill="url(#paint0_linear_333_3049)" fill-opacity="0.4"/>
<path d="M8.32865 74.1764C4.67911 84.2388 12.1321 94.8699 22.8358 94.8699H79.7415C86.2354 94.8699 92.0344 90.8045 94.2486 84.6997L104.878 55.3941C107.459 48.2767 104.496 40.3377 97.8822 36.6523L71.9996 22.2292C67.3298 19.627 61.6458 19.627 56.976 22.2292L24.6509 40.2423C21.4059 42.0505 18.9221 44.9686 17.6555 48.4608L8.32865 74.1764Z" fill="#2B763C"/>
<path d="M8.32865 74.1764C4.67911 84.2388 12.1321 94.8699 22.8358 94.8699H79.7415C86.2354 94.8699 92.0344 90.8045 94.2486 84.6997L104.878 55.3941C107.459 48.2767 104.496 40.3377 97.8822 36.6523L71.9996 22.2292C67.3298 19.627 61.6458 19.627 56.976 22.2292L24.6509 40.2423C21.4059 42.0505 18.9221 44.9686 17.6555 48.4608L8.32865 74.1764Z" fill="url(#paint1_linear_333_3049)" fill-opacity="0.4"/>
<path d="M8.32865 74.1764C4.67911 84.2388 12.1321 94.8699 22.8358 94.8699H79.7415C86.2354 94.8699 92.0344 90.8045 94.2486 84.6997L104.878 55.3941C107.459 48.2767 104.496 40.3377 97.8822 36.6523L71.9996 22.2292C67.3298 19.627 61.6458 19.627 56.976 22.2292L24.6509 40.2423C21.4059 42.0505 18.9221 44.9686 17.6555 48.4608L8.32865 74.1764Z" fill="url(#paint2_linear_333_3049)" fill-opacity="0.4"/>
<path d="M4.48193 79.4381C4.48193 87.9609 11.391 94.8699 19.9138 94.8699H79.2909C87.8137 94.8699 94.7228 87.9609 94.7228 79.4381V39.7161C94.7228 34.5963 92.1836 29.8099 87.9446 26.9389L58.256 6.83161C53.0298 3.29204 46.1749 3.29204 40.9487 6.83161L11.2601 26.9389C7.0211 29.8099 4.48193 34.5964 4.48193 39.7161V79.4381Z" fill="#504EBB"/>
<path d="M4.48193 79.4381C4.48193 87.9609 11.391 94.8699 19.9138 94.8699H79.2909C87.8137 94.8699 94.7228 87.9609 94.7228 79.4381V39.7161C94.7228 34.5963 92.1836 29.8099 87.9446 26.9389L58.256 6.83161C53.0298 3.29204 46.1749 3.29204 40.9487 6.83161L11.2601 26.9389C7.0211 29.8099 4.48193 34.5964 4.48193 39.7161V79.4381Z" fill="url(#paint3_linear_333_3049)" fill-opacity="0.4"/>
<path d="M4.48193 79.4381C4.48193 87.9609 11.391 94.8699 19.9138 94.8699H79.2909C87.8137 94.8699 94.7228 87.9609 94.7228 79.4381V39.7161C94.7228 34.5963 92.1836 29.8099 87.9446 26.9389L58.256 6.83161C53.0298 3.29204 46.1749 3.29204 40.9487 6.83161L11.2601 26.9389C7.0211 29.8099 4.48193 34.5964 4.48193 39.7161V79.4381Z" fill="#4EBB66"/>
<path d="M4.48193 79.4381C4.48193 87.9609 11.391 94.8699 19.9138 94.8699H79.2909C87.8137 94.8699 94.7228 87.9609 94.7228 79.4381V39.7161C94.7228 34.5963 92.1836 29.8099 87.9446 26.9389L58.256 6.83161C53.0298 3.29204 46.1749 3.29204 40.9487 6.83161L11.2601 26.9389C7.0211 29.8099 4.48193 34.5964 4.48193 39.7161V79.4381Z" fill="url(#paint4_linear_333_3049)" fill-opacity="0.4"/>
<path d="M4.48193 79.4381C4.48193 87.9609 11.391 94.8699 19.9138 94.8699H79.2909C87.8137 94.8699 94.7228 87.9609 94.7228 79.4381V39.7161C94.7228 34.5963 92.1836 29.8099 87.9446 26.9389L58.256 6.83161C53.0298 3.29204 46.1749 3.29204 40.9487 6.83161L11.2601 26.9389C7.0211 29.8099 4.48193 34.5964 4.48193 39.7161V79.4381Z" fill="url(#paint5_linear_333_3049)" fill-opacity="0.4"/>
<path d="M40.4001 46.8V43.6C40.4001 41.0539 41.4115 38.6121 43.2119 36.8118C45.0122 35.0114 47.454 34 50.0001 34C52.5462 34 54.988 35.0114 56.7883 36.8118C58.5887 38.6121 59.6001 41.0539 59.6001 43.6V46.8H61.2001C62.0488 46.8 62.8627 47.1371 63.4628 47.7373C64.063 48.3374 64.4001 49.1513 64.4001 50V62.8C64.4001 63.6487 64.063 64.4626 63.4628 65.0627C62.8627 65.6629 62.0488 66 61.2001 66H38.8001C37.9514 66 37.1375 65.6629 36.5374 65.0627C35.9372 64.4626 35.6001 63.6487 35.6001 62.8V50C35.6001 48.24 37.0401 46.8 38.8001 46.8H40.4001ZM48.4001 57.568V61.2H51.6001V57.568C52.2102 57.2158 52.6869 56.6721 52.9565 56.0213C53.2261 55.3705 53.2734 54.6489 53.0911 53.9685C52.9087 53.2881 52.507 52.6868 51.9481 52.258C51.3893 51.8292 50.7045 51.5967 50.0001 51.5967C49.2957 51.5967 48.6109 51.8292 48.0521 52.258C47.4932 52.6868 47.0915 53.2881 46.9091 53.9685C46.7268 54.6489 46.7741 55.3705 47.0437 56.0213C47.3133 56.6721 47.79 57.2158 48.4001 57.568ZM45.2001 43.6V46.8H54.8001V43.6C54.8001 42.327 54.2944 41.1061 53.3942 40.2059C52.494 39.3057 51.2731 38.8 50.0001 38.8C48.7271 38.8 47.5062 39.3057 46.606 40.2059C45.7058 41.1061 45.2001 42.327 45.2001 43.6Z" fill="black"/>
<path d="M40.4001 46.8V43.6C40.4001 41.0539 41.4115 38.6121 43.2119 36.8118C45.0122 35.0114 47.454 34 50.0001 34C52.5462 34 54.988 35.0114 56.7883 36.8118C58.5887 38.6121 59.6001 41.0539 59.6001 43.6V46.8H61.2001C62.0488 46.8 62.8627 47.1371 63.4628 47.7373C64.063 48.3374 64.4001 49.1513 64.4001 50V62.8C64.4001 63.6487 64.063 64.4626 63.4628 65.0627C62.8627 65.6629 62.0488 66 61.2001 66H38.8001C37.9514 66 37.1375 65.6629 36.5374 65.0627C35.9372 64.4626 35.6001 63.6487 35.6001 62.8V50C35.6001 48.24 37.0401 46.8 38.8001 46.8H40.4001ZM48.4001 57.568V61.2H51.6001V57.568C52.2102 57.2158 52.6869 56.6721 52.9565 56.0213C53.2261 55.3705 53.2734 54.6489 53.0911 53.9685C52.9087 53.2881 52.507 52.6868 51.9481 52.258C51.3893 51.8292 50.7045 51.5967 50.0001 51.5967C49.2957 51.5967 48.6109 51.8292 48.0521 52.258C47.4932 52.6868 47.0915 53.2881 46.9091 53.9685C46.7268 54.6489 46.7741 55.3705 47.0437 56.0213C47.3133 56.6721 47.79 57.2158 48.4001 57.568ZM45.2001 43.6V46.8H54.8001V43.6C54.8001 42.327 54.2944 41.1061 53.3942 40.2059C52.494 39.3057 51.2731 38.8 50.0001 38.8C48.7271 38.8 47.5062 39.3057 46.606 40.2059C45.7058 41.1061 45.2001 42.327 45.2001 43.6Z" fill="#A9F4BA"/>
<defs>
<filter id="filter0_f_333_3049" x="19.919" y="14.3057" width="125.574" height="117.047" filterUnits="userSpaceOnUse" color-interpolation-filters="sRGB">
<feFlood flood-opacity="0" result="BackgroundImageFix"/>
<feBlend mode="normal" in="SourceGraphic" in2="BackgroundImageFix" result="shape"/>
<feGaussianBlur stdDeviation="13.6765" result="effect1_foregroundBlur_333_3049"/>
</filter>
<linearGradient id="paint0_linear_333_3049" x1="57.5286" y1="67.4319" x2="57.9049" y2="17.8461" gradientUnits="userSpaceOnUse">
<stop/>
<stop offset="1" stop-opacity="0"/>
</linearGradient>
<linearGradient id="paint1_linear_333_3049" x1="10.8033" y1="94.8699" x2="26.0258" y2="52.7905" gradientUnits="userSpaceOnUse">
<stop stop-color="white"/>
<stop offset="1" stop-color="white" stop-opacity="0"/>
</linearGradient>
<linearGradient id="paint2_linear_333_3049" x1="109.429" y1="104.96" x2="79.8323" y2="48.868" gradientUnits="userSpaceOnUse">
<stop/>
<stop offset="1" stop-opacity="0"/>
</linearGradient>
<linearGradient id="paint3_linear_333_3049" x1="12.7799" y1="94.8699" x2="33.7914" y2="51.7818" gradientUnits="userSpaceOnUse">
<stop stop-color="white"/>
<stop offset="1" stop-color="white" stop-opacity="0"/>
</linearGradient>
<linearGradient id="paint4_linear_333_3049" x1="12.7799" y1="94.8699" x2="36.8903" y2="49.5301" gradientUnits="userSpaceOnUse">
<stop stop-color="white"/>
<stop offset="1" stop-color="white" stop-opacity="0"/>
</linearGradient>
<linearGradient id="paint5_linear_333_3049" x1="94.7831" y1="107.203" x2="52.3389" y2="52.479" gradientUnits="userSpaceOnUse">
<stop/>
<stop offset="1" stop-opacity="0"/>
</linearGradient>
</defs>
</svg>
