<svg width="30" height="30" viewBox="0 0 30 30" fill="none" xmlns="http://www.w3.org/2000/svg">
<path d="M0.995562 29.9979L4.91721 26.0762C6.26344 27.3054 7.79991 28.2663 9.5266 28.9589C11.2533 29.6515 13.0727 29.9979 14.9847 29.9979C18.0869 29.9979 20.9013 29.1248 23.428 27.3785C25.9546 25.6323 27.774 23.3642 28.8861 20.5742L25.4034 19.1694C24.5645 21.2766 23.2036 22.9838 21.3208 24.291C19.438 25.5982 17.326 26.2518 14.9847 26.2518C12.1557 26.2518 9.67781 25.3055 7.55115 23.413L11.2387 19.6962C11.2582 19.4231 11.1753 19.1938 10.9899 19.0085C10.8046 18.8231 10.5753 18.7402 10.3022 18.7597L1.25896 18.7597C0.985806 18.7597 0.717533 18.8914 0.45414 19.1548C0.190746 19.4182 0.0492935 19.6865 0.0297832 19.9596L0.000514984 29.3247C-0.0189953 29.793 0.312687 30.0174 0.995562 29.9979ZM14.9847 3.77551C17.8138 3.77551 20.2916 4.71202 22.4183 6.58505L18.7308 10.3018C18.7113 10.575 18.7942 10.8042 18.9795 10.9896C19.1649 11.1749 19.3941 11.2676 19.6673 11.2676H28.7105C28.9836 11.2481 29.2519 11.1066 29.5153 10.8433C29.7787 10.5799 29.9201 10.3116 29.9396 10.0384L29.9689 0.673313C29.9884 0.205055 29.6567 -0.0193176 28.9739 0.000192642L25.0522 3.92184C23.706 2.69267 22.1695 1.73664 20.4428 1.05377C18.7161 0.370897 16.8968 0.029459 14.9847 0.029459C11.8825 0.029459 9.0681 0.897686 6.54147 2.63413C4.01484 4.37058 2.19547 6.64358 1.08336 9.45312L4.56602 10.8286C5.40497 8.72146 6.76584 7.01916 8.64862 5.7217C10.5314 4.42424 12.6434 3.77551 14.9847 3.77551Z" fill="#A7A7A7"/>
</svg>
